<svg width="266" height="31" viewBox="0 0 266 31" fill="none" xmlns="http://www.w3.org/2000/svg">
<path d="M8.08 1.8V30H0.24V1.8H8.08ZM27.2247 7.36C29.8114 7.36 31.8647 8.22666 33.3847 9.96C34.9047 11.6667 35.6647 13.9867 35.6647 16.92V30H27.8247V17.96C27.8247 16.68 27.4914 15.68 26.8247 14.96C26.158 14.2133 25.2647 13.84 24.1447 13.84C22.9714 13.84 22.0514 14.2133 21.3847 14.96C20.718 15.68 20.3847 16.68 20.3847 17.96V30H12.5447V7.56H20.3847V10.76C21.078 9.74666 22.0114 8.93333 23.1847 8.32C24.358 7.68 25.7047 7.36 27.2247 7.36ZM69.2866 7.36C72.1132 7.36 74.3266 8.21333 75.9266 9.92C77.5532 11.6267 78.3666 13.96 78.3666 16.92V30H70.5266V17.96C70.5266 16.76 70.1932 15.8267 69.5266 15.16C68.8599 14.4933 67.9532 14.16 66.8066 14.16C65.6599 14.16 64.7532 14.4933 64.0866 15.16C63.4199 15.8267 63.0866 16.76 63.0866 17.96V30H55.2466V17.96C55.2466 16.76 54.9132 15.8267 54.2466 15.16C53.6066 14.4933 52.7132 14.16 51.5666 14.16C50.3932 14.16 49.4732 14.4933 48.8066 15.16C48.1399 15.8267 47.8066 16.76 47.8066 17.96V30H39.9666V7.56H47.8066V10.52C48.4999 9.56 49.3932 8.8 50.4866 8.24C51.6066 7.65333 52.8866 7.36 54.3266 7.36C55.9799 7.36 57.4466 7.72 58.7266 8.44C60.0332 9.16 61.0599 10.1733 61.8066 11.48C62.6066 10.2533 63.6599 9.26667 64.9666 8.52C66.2732 7.74667 67.7132 7.36 69.2866 7.36ZM105.622 7.56V30H97.7419V26.8C97.0752 27.8133 96.1552 28.64 94.9819 29.28C93.8085 29.8933 92.4619 30.2 90.9419 30.2C88.3285 30.2 86.2619 29.3467 84.7419 27.64C83.2485 25.9067 82.5019 23.56 82.5019 20.6V7.56H90.3019V19.6C90.3019 20.88 90.6352 21.8933 91.3019 22.64C91.9952 23.36 92.9019 23.72 94.0219 23.72C95.1685 23.72 96.0752 23.36 96.7419 22.64C97.4085 21.8933 97.7419 20.88 97.7419 19.6V7.56H105.622ZM131.524 18.52C131.524 19.1333 131.484 19.7467 131.404 20.36H116.564C116.644 21.5867 116.977 22.5067 117.564 23.12C118.177 23.7067 118.95 24 119.884 24C121.19 24 122.124 23.4133 122.684 22.24H131.044C130.697 23.7867 130.017 25.1733 129.004 26.4C128.017 27.6 126.764 28.5467 125.244 29.24C123.724 29.9333 122.044 30.28 120.204 30.28C117.99 30.28 116.017 29.8133 114.284 28.88C112.577 27.9467 111.23 26.6133 110.244 24.88C109.284 23.1467 108.804 21.1067 108.804 18.76C108.804 16.4133 109.284 14.3867 110.244 12.68C111.204 10.9467 112.537 9.61333 114.244 8.68C115.977 7.74667 117.964 7.28 120.204 7.28C122.417 7.28 124.377 7.73333 126.084 8.64C127.79 9.54667 129.124 10.8533 130.084 12.56C131.044 14.24 131.524 16.2267 131.524 18.52ZM123.524 16.56C123.524 15.6 123.204 14.8533 122.564 14.32C121.924 13.76 121.124 13.48 120.164 13.48C119.204 13.48 118.417 13.7467 117.804 14.28C117.19 14.7867 116.79 15.5467 116.604 16.56H123.524ZM142.572 10.68C143.186 9.61333 144.052 8.78667 145.172 8.2C146.292 7.58667 147.612 7.28 149.132 7.28C150.919 7.28 152.532 7.74667 153.972 8.68C155.439 9.61333 156.586 10.9467 157.412 12.68C158.266 14.4133 158.692 16.44 158.692 18.76C158.692 21.08 158.266 23.12 157.412 24.88C156.586 26.6133 155.439 27.9467 153.972 28.88C152.532 29.8133 150.919 30.28 149.132 30.28C147.612 30.28 146.292 29.9867 145.172 29.4C144.052 28.7867 143.186 27.9467 142.572 26.88V30H134.732V0.4H142.572V10.68ZM150.732 18.76C150.732 17.2933 150.332 16.16 149.532 15.36C148.759 14.5333 147.799 14.12 146.652 14.12C145.506 14.12 144.532 14.5333 143.732 15.36C142.959 16.1867 142.572 17.32 142.572 18.76C142.572 20.2267 142.959 21.3733 143.732 22.2C144.532 23.0267 145.506 23.44 146.652 23.44C147.799 23.44 148.759 23.0267 149.532 22.2C150.332 21.3467 150.732 20.2 150.732 18.76ZM169.76 0.4V30H161.92V0.4H169.76ZM195.664 18.52C195.664 19.1333 195.624 19.7467 195.544 20.36H180.704C180.784 21.5867 181.118 22.5067 181.704 23.12C182.318 23.7067 183.091 24 184.024 24C185.331 24 186.264 23.4133 186.824 22.24H195.184C194.838 23.7867 194.158 25.1733 193.144 26.4C192.158 27.6 190.904 28.5467 189.384 29.24C187.864 29.9333 186.184 30.28 184.344 30.28C182.131 30.28 180.158 29.8133 178.424 28.88C176.718 27.9467 175.371 26.6133 174.384 24.88C173.424 23.1467 172.944 21.1067 172.944 18.76C172.944 16.4133 173.424 14.3867 174.384 12.68C175.344 10.9467 176.678 9.61333 178.384 8.68C180.118 7.74667 182.104 7.28 184.344 7.28C186.558 7.28 188.518 7.73333 190.224 8.64C191.931 9.54667 193.264 10.8533 194.224 12.56C195.184 14.24 195.664 16.2267 195.664 18.52ZM187.664 16.56C187.664 15.6 187.344 14.8533 186.704 14.32C186.064 13.76 185.264 13.48 184.304 13.48C183.344 13.48 182.558 13.7467 181.944 14.28C181.331 14.7867 180.931 15.5467 180.744 16.56H187.664ZM208.433 30.28C206.406 30.28 204.593 29.9467 202.993 29.28C201.419 28.5867 200.166 27.6533 199.233 26.48C198.326 25.28 197.819 23.9333 197.713 22.44H205.313C205.419 23.16 205.753 23.72 206.313 24.12C206.873 24.52 207.566 24.72 208.393 24.72C209.033 24.72 209.539 24.5867 209.913 24.32C210.286 24.0533 210.473 23.7067 210.473 23.28C210.473 22.72 210.166 22.3067 209.553 22.04C208.939 21.7733 207.926 21.48 206.513 21.16C204.913 20.84 203.579 20.48 202.513 20.08C201.446 19.68 200.513 19.0267 199.713 18.12C198.939 17.2133 198.553 15.9867 198.553 14.44C198.553 13.1067 198.913 11.9067 199.633 10.84C200.353 9.74667 201.406 8.88 202.793 8.24C204.206 7.6 205.899 7.28 207.873 7.28C210.806 7.28 213.113 8 214.793 9.44C216.473 10.88 217.446 12.7733 217.713 15.12H210.633C210.499 14.4 210.179 13.8533 209.673 13.48C209.193 13.08 208.539 12.88 207.713 12.88C207.073 12.88 206.579 13 206.233 13.24C205.913 13.48 205.753 13.8133 205.753 14.24C205.753 14.7733 206.059 15.1867 206.673 15.48C207.286 15.7467 208.273 16.0267 209.633 16.32C211.259 16.6667 212.606 17.0533 213.673 17.48C214.766 17.9067 215.713 18.6 216.513 19.56C217.339 20.4933 217.753 21.7733 217.753 23.4C217.753 24.7067 217.366 25.88 216.593 26.92C215.846 27.96 214.766 28.7867 213.353 29.4C211.966 29.9867 210.326 30.28 208.433 30.28ZM238.927 12.88V19.4H220.807V12.88H238.927ZM253.292 23.64H265.012V30H244.492V24.04L256.092 8.12H244.492V1.8H265.012V7.76L253.292 23.64Z" fill="url(#paint0_linear_2_14)"/>
<defs>
<linearGradient id="paint0_linear_2_14" x1="145.238" y1="16.7113" x2="403.423" y2="20.23" gradientUnits="userSpaceOnUse">
<stop stop-color="#1EA0FF"/>
<stop offset="1" stop-color="#041DFF"/>
</linearGradient>
</defs>
</svg>
