<?xml version="1.0" encoding="UTF-8"?>
<svg id="Capa_1" data-name="Capa 1" xmlns="http://www.w3.org/2000/svg" viewBox="0 0 597.59 549.42">
  <defs>
    <style>
      .cls-1 {
        fill: #0a1b79;
        stroke: #fff;
        stroke-miterlimit: 10;
        stroke-width: 2px;
      }
    </style>
  </defs>
  <path class="cls-1" d="m15.89,359.6c5.55,15.78,49,133.1,170.69,174.8,107.15,36.73,231.19-.17,310.36-93.76,17.65,19.17,35.29,38.34,52.94,57.52-6.1-46.19-12.2-92.37-18.3-138.56h-116.99c16.56,17.43,33.12,34.86,49.67,52.29-11.46,11.18-28.34,25.74-50.98,39.22-21.13,12.58-77.67,46.3-137.91,37.91-95.47-13.31-140.25-124.02-142.34-129.41H15.89Z"/>
  <path class="cls-1" d="m535.39,189.82c-5.55-15.78-49-133.1-170.69-174.8-107.15-36.73-231.19.17-310.36,93.76C36.7,89.6,19.05,70.43,1.41,51.26c6.1,46.19,12.2,92.37,18.3,138.56h116.99c-16.56-17.43-33.12-34.86-49.67-52.29,11.46-11.18,28.34-25.74,50.98-39.22,21.13-12.58,77.67-46.3,137.91-37.91,95.47,13.31,140.25,124.02,142.34,129.41h117.14Z"/>
</svg>